<svg t="1725271537539" class="icon" viewBox="0 0 1070 1024" version="1.1" xmlns="http://www.w3.org/2000/svg" p-id="7918" width="200" height="200"><path d="M703.478186 320.521814l13.823808-16.895765 22.015693-3.071957-15.871779-12.799821-4.095943-25.599643-14.847793 18.943735-23.551671 3.071958 19.967721 15.359785zM165.373693 410.632556c0-10.75185-8.703879-19.455729-19.455729-19.455728-10.75185 0-19.455729 8.703879-19.455728 19.455728 0 10.75185 8.703879 19.455729 19.455728 19.455729 10.75185-0.511993 19.455729-8.703879 19.455729-19.455729zM382.458665 231.947049c7.679893 0 13.823807-6.143914 13.823807-13.823807s-6.143914-13.823807-13.823807-13.823807-13.823807 6.143914-13.823807 13.823807c0 7.1679 6.143914 13.311814 13.823807 13.823807zM993.266144 913.921536h-57.855193c-6.143914 0-10.75185 5.119929-10.75185 10.75185 0 6.143914 5.119929 10.75185 10.75185 10.75185H993.266144c6.143914 0 10.75185-5.119929 10.75185-10.75185 0.511993-5.631921-4.607936-10.75185-10.75185-10.75185zM594.423708 979.968614c6.143914 0 10.75185-5.119929 10.75185-10.75185s-5.119929-10.75185-10.75185-10.75185h-27.647615c-6.143914 0-10.75185 5.119929-10.75185 10.75185s5.119929 10.75185 10.75185 10.75185h27.647615zM902.643408 979.968614c6.143914 0 10.75185-5.119929 10.75185-10.75185s-5.119929-10.75185-10.75185-10.75185H660.470786c-6.143914 0-10.75185 5.119929-10.75185 10.75185s5.119929 10.75185 10.75185 10.75185h242.172622zM872.43583 622.5976c-10.75185 0-19.455729 8.703879-19.455729 19.455728s8.703879 19.455729 19.455729 19.455729 19.455729-8.703879 19.455728-19.455729c-0.511993-11.263843-9.215871-19.455729-19.455728-19.455728zM495.609086 979.968614c6.143914 0 10.75185-5.119929 10.75185-10.75185s-5.119929-10.75185-10.75185-10.75185h-274.940164c-6.143914 0-10.75185 5.119929-10.75185 10.75185s5.119929 10.75185 10.75185 10.75185h274.940164zM927.731058 1001.984307h-476.66535c-6.143914 0-11.263843 4.607936-11.263843 10.75185s4.607936 11.263843 10.75185 11.263843h476.66535c6.143914 0 11.263843-4.607936 11.263843-10.75185s-4.607936-11.263843-10.75185-11.263843zM372.218808 1001.984307h-311.291658c-6.143914 0-11.263843 4.607936-11.263843 10.75185s4.607936 11.263843 10.75185 11.263843H371.706815c6.143914 0 11.263843-4.607936 11.263843-10.75185s-4.607936-11.263843-10.75185-11.263843zM316.411586 60.941435c16.895764 0 30.207579-13.823807 30.207579-30.207579 0.511993-16.895764-12.799821-30.719571-29.695586-30.719571-16.895764-0.511993-30.719571 12.799821-30.719572 29.695585v1.023986c0.511993 16.895764 13.823807 30.207579 30.207579 30.207579z m0-49.151315c10.75185 0 18.943736 8.703879 19.455729 19.455729-0.511993 10.75185-9.215871 18.943736-19.967722 18.943736-10.239857-0.511993-18.431743-8.703879-18.943736-18.943736 0.511993-10.75185 9.215871-19.455729 19.455729-19.455729zM861.171987 143.884278l20.991707-49.151315 47.103343-20.479714-44.543379-18.943736-24.063664-54.783236-22.527686 51.711279-51.711279 22.015693 54.783236 23.551671zM486.905208 570.886321c0 9.215871 7.1679 16.383771 16.383771 16.383771s16.383771-7.1679 16.383772-16.383771c0-9.215871-7.1679-16.383771-16.383772-16.383772s-16.383771 7.1679-16.383771 16.383772zM503.288979 509.447178c21.5037 0 38.911457-17.407757 38.911457-38.911457s-17.407757-38.911457-38.911457-38.911457-38.911457 17.407757-38.911457 38.911457 17.407757 38.911457 38.911457 38.911457zM597.495665 606.725821c21.5037 0 38.911457-17.407757 38.911457-38.911457s-17.407757-38.911457-38.911457-38.911457c-21.5037 0-38.911457 17.407757-38.911457 38.911457s17.407757 38.911457 38.911457 38.911457z" p-id="7919" fill="#e6e6e6"></path><path d="M1048.04938 720.388235L952.306715 667.652971c25.08765-83.966829 25.599643-173.565579 1.023986-258.0444-53.75925-188.413372-217.596965-315.3876-404.474358-333.819343-18.943736-2.047971-37.887471-3.071957-57.3432-3.071958-93.1827 0-184.317429 26.623629-262.652336 77.822915l-37.887471-37.887472c-8.191886-7.679893-20.479714-7.679893-28.6716 0-5.631921 5.631921-7.1679 13.823807-5.119929 20.991707l44.031386 44.031386c14.847793 14.847793 14.847793 38.399464 0 53.247257-14.847793 14.847793-38.399464 14.847793-53.247257 0l-82.942843-82.942843c-16.895764-10.75185-38.911457-8.191886-52.735264 6.143915-16.383771 16.895764-16.383771 43.519393 0 60.415157l76.798928 77.310921c-47.103343 73.726972-72.190993 159.741772-72.190993 247.804544 0 153.597857 75.774943 289.787957 191.485329 374.266779h-180.221486c-6.143914 0-10.75185 5.119929-10.75185 10.75185 0 6.143914 5.119929 10.75185 10.75185 10.75185h863.219958c6.143914 0 10.75185-5.119929 10.75185-10.75185 0-6.143914-5.119929-10.75185-10.75185-10.75185h-112.126436c28.159607-20.991707 54.271243-45.055371 76.798929-71.679l47.103343 26.623628c9.727864 5.631921 22.015693 2.559964 27.647614-7.1679 5.631921-9.727864 2.559964-22.015693-7.1679-27.647614 0 0-0.511993 0-0.511993-0.511993l-46.59135-25.599643c-15.359786-14.3358-16.895764-38.399464-2.559964-53.75925 8.703879-9.215871 21.5037-13.823807 33.791529-12.287829l97.790636 54.271243c20.479714 11.775836 46.59135 4.095943 58.367185-16.383771s4.607936-48.127329-15.871778-59.391172z m-350.715108-449.529729l28.159607-34.815514 7.1679 45.567364 32.767543 26.111636-42.495407 6.143914-27.647614 34.303522-6.143915-41.983414-36.351492-28.671601 44.543378-6.655907z m-332.795357-70.655014c9.727864-9.727864 25.599643-9.727864 35.327507 0 9.727864 9.727864 9.727864 25.599643 0 35.327507-9.727864 9.727864-25.599643 9.727864-35.327507 0-4.607936-4.607936-7.1679-10.75185-7.1679-17.407757 0-6.655907 2.559964-12.799821 7.1679-17.91975z m-50.687293 136.1901l5.631921-16.895764 6.143914 17.407757 15.359786 5.119929-15.871778 5.631921-5.631922 15.871779-5.119928-15.359786-17.407758-6.143914 16.895765-5.631922z m189.437357 20.479714c116.734372 0 210.941057 94.718679 210.941057 210.941058 0 71.167007-34.815514 133.630136-89.086757 172.0296h69.631029c10.75185 0 19.455729 8.703879 19.455728 19.455729s-8.703879 19.455729-19.455728 19.455728h-191.485329c-116.734372 0-210.941057-94.718679-210.941057-210.941057s94.206686-210.941057 210.941057-210.941058z m-388.090586 53.75925c0-16.895764 13.311814-30.207579 30.207579-30.207578s30.207579 13.311814 30.207578 30.207578-13.311814 30.207579-30.207578 30.207579c-16.383771 0-30.207579-13.823807-30.207579-30.207579z m61.951136 300.027815l-8.703879-27.135621-30.719571-10.239858 29.695585-9.727864 9.727865-29.695586 10.239857 30.719572 27.135621 8.703878-28.159607 9.215872-9.215871 28.159607z m40.447436 208.381093c-2.047971-1.535979-3.58395-2.559964-5.631922-4.095943h564.728122c-1.535979 1.023986-3.58395 2.559964-5.119928 4.095943h-553.976272z m654.326872-247.29255c-16.895764 0-30.207579-13.311814-30.207579-30.207579s13.311814-30.207579 30.207579-30.207578c16.383771 0 30.207579 13.823807 30.207578 30.207578 0 16.895764-13.823807 30.207579-30.207578 30.207579z" p-id="7920" fill="#e6e6e6"></path><path d="M406.010336 606.725821c21.5037 0 38.911457-17.407757 38.911457-38.911457s-17.407757-38.911457-38.911457-38.911457c-21.5037 0-38.911457 17.407757-38.911457 38.911457s16.895764 38.911457 38.911457 38.911457zM503.288979 704.004464c21.5037 0 38.911457-17.407757 38.911457-38.911457s-17.407757-38.911457-38.911457-38.911457-38.911457 17.407757-38.911457 38.911457 17.407757 38.911457 38.911457 38.911457z" p-id="7921" fill="#e6e6e6"></path></svg>